<svg width="33" height="32" viewBox="0 0 33 32" fill="none" xmlns="http://www.w3.org/2000/svg">
<path d="M29.5743 13.3887H28.5003V13.3334H16.5003V18.6667H24.0357C22.9363 21.7714 19.9823 24.0001 16.5003 24.0001C12.0823 24.0001 8.50033 20.4181 8.50033 16.0001C8.50033 11.5821 12.0823 8.00008 16.5003 8.00008C18.5397 8.00008 20.395 8.76941 21.8077 10.0261L25.579 6.25475C23.1977 4.03541 20.0123 2.66675 16.5003 2.66675C9.13699 2.66675 3.16699 8.63675 3.16699 16.0001C3.16699 23.3634 9.13699 29.3334 16.5003 29.3334C23.8637 29.3334 29.8337 23.3634 29.8337 16.0001C29.8337 15.1061 29.7417 14.2334 29.5743 13.3887Z" fill="#FFC107"/>
<path d="M4.7041 9.79408L9.08477 13.0067C10.2701 10.0721 13.1408 8.00008 16.5001 8.00008C18.5394 8.00008 20.3948 8.76941 21.8074 10.0261L25.5788 6.25475C23.1974 4.03541 20.0121 2.66675 16.5001 2.66675C11.3788 2.66675 6.93743 5.55808 4.7041 9.79408Z" fill="#FF3D00"/>
<path d="M16.4999 29.3333C19.9439 29.3333 23.0732 28.0153 25.4392 25.872L21.3125 22.38C19.9289 23.4322 18.2382 24.0013 16.4999 24C13.0319 24 10.0872 21.7886 8.97788 18.7026L4.62988 22.0526C6.83655 26.3706 11.3179 29.3333 16.4999 29.3333Z" fill="#4CAF50"/>
<path d="M29.574 13.3886H28.5V13.3333H16.5V18.6666H24.0353C23.5095 20.1442 22.5622 21.4354 21.3107 22.3806L21.3127 22.3793L25.4393 25.8713C25.1473 26.1366 29.8333 22.6666 29.8333 15.9999C29.8333 15.1059 29.7413 14.2333 29.574 13.3886Z" fill="#1976D2"/>
</svg>
