<svg width="21" height="17" viewBox="0 0 21 17" fill="none" xmlns="http://www.w3.org/2000/svg">
<path d="M17.7808 1.04519C17.5574 0.434633 16.9319 0 16.1948 0H3.90909C3.17195 0 2.55766 0.434633 2.32312 1.04519L0 7.24388V15.5226C0 16.0918 0.502597 16.5574 1.11688 16.5574H2.23377C2.84805 16.5574 3.35065 16.0918 3.35065 15.5226V14.4878H16.7532V15.5226C16.7532 16.0918 17.2558 16.5574 17.8701 16.5574H18.987C19.6013 16.5574 20.1039 16.0918 20.1039 15.5226V7.24388L17.7808 1.04519ZM3.90909 11.3832C2.98208 11.3832 2.23377 10.6899 2.23377 9.83097C2.23377 8.97206 2.98208 8.27872 3.90909 8.27872C4.8361 8.27872 5.58442 8.97206 5.58442 9.83097C5.58442 10.6899 4.8361 11.3832 3.90909 11.3832ZM16.1948 11.3832C15.2678 11.3832 14.5195 10.6899 14.5195 9.83097C14.5195 8.97206 15.2678 8.27872 16.1948 8.27872C17.1218 8.27872 17.8701 8.97206 17.8701 9.83097C17.8701 10.6899 17.1218 11.3832 16.1948 11.3832ZM2.23377 6.20904L3.90909 1.55226H16.1948L17.8701 6.20904H2.23377Z" fill="black" fill-opacity="0.5"/>
</svg>
