<svg width="27" height="24" viewBox="0 0 27 24" fill="none" xmlns="http://www.w3.org/2000/svg">
<g clip-path="url(#clip0_831_1290)">
<path d="M5.06516 12C6.60725 12 7.85736 10.8807 7.85736 9.5C7.85736 8.11929 6.60725 7 5.06516 7C3.52306 7 2.27295 8.11929 2.27295 9.5C2.27295 10.8807 3.52306 12 5.06516 12Z" fill="black" fill-opacity="0.5"/>
<path d="M10.091 8C11.6331 8 12.8832 6.88071 12.8832 5.5C12.8832 4.11929 11.6331 3 10.091 3C8.54894 3 7.29883 4.11929 7.29883 5.5C7.29883 6.88071 8.54894 8 10.091 8Z" fill="black" fill-opacity="0.5"/>
<path d="M16.7922 8C18.3343 8 19.5844 6.88071 19.5844 5.5C19.5844 4.11929 18.3343 3 16.7922 3C15.2501 3 14 4.11929 14 5.5C14 6.88071 15.2501 8 16.7922 8Z" fill="black" fill-opacity="0.5"/>
<path d="M21.8183 12C23.3604 12 24.6105 10.8807 24.6105 9.5C24.6105 8.11929 23.3604 7 21.8183 7C20.2762 7 19.0261 8.11929 19.0261 9.5C19.0261 10.8807 20.2762 12 21.8183 12Z" fill="black" fill-opacity="0.5"/>
<path d="M19.4057 14.86C18.4341 13.84 17.6187 12.97 16.6359 11.95C16.1221 11.41 15.4631 10.87 14.6813 10.63C14.5585 10.59 14.4356 10.56 14.3128 10.54C14.0335 10.5 13.732 10.5 13.4416 10.5C13.1512 10.5 12.8496 10.5 12.5592 10.55C12.4364 10.57 12.3135 10.6 12.1907 10.64C11.4089 10.88 10.7611 11.42 10.2361 11.96C9.26444 12.98 8.44911 13.85 7.46626 14.87C6.00314 16.18 4.20496 17.63 4.54002 19.66C4.86392 20.68 5.67924 21.69 7.14236 21.98C7.95769 22.13 10.56 21.54 13.3299 21.54H13.5309C16.3008 21.54 18.9031 22.12 19.7185 21.98C21.1816 21.69 21.9969 20.67 22.3208 19.66C22.667 17.62 20.8689 16.17 19.4057 14.86Z" fill="black" fill-opacity="0.5"/>
</g>
<defs>
<clipPath id="clip0_831_1290">
<rect width="26.8052" height="24" fill="white" transform="translate(0.0390625)"/>
</clipPath>
</defs>
</svg>
