<svg width="48" height="53" viewBox="0 0 48 53" fill="none" xmlns="http://www.w3.org/2000/svg">
<rect width="48" height="52.6829" rx="6" fill="#4C5B63"/>
<path fill-rule="evenodd" clip-rule="evenodd" d="M39.68 39.9361C39.68 47.1712 30.64 48.0075 23.842 48.0075L23.3555 48.0071C19.0244 47.9955 8 47.6954 8 39.8922C8 32.8047 16.6767 31.8575 23.423 31.8218L24.3285 31.8212C28.6593 31.8327 39.68 32.1328 39.68 39.9361ZM23.842 35.1134C15.32 35.1134 11 36.7202 11 39.8922C11 43.0927 15.32 44.7149 23.842 44.7149C32.362 44.7149 36.68 43.108 36.68 39.9361C36.68 36.7356 32.362 35.1134 23.842 35.1134ZM23.842 4.38959C29.698 4.38959 34.46 9.61837 34.46 16.0457C34.46 22.473 29.698 27.6996 23.842 27.6996H23.778C17.934 27.6798 13.2 22.4489 13.2199 16.0391C13.2199 9.61837 17.984 4.38959 23.842 4.38959ZM23.842 7.52422C19.56 7.52422 16.076 11.3459 16.076 16.0457C16.062 20.7301 19.52 24.5496 23.784 24.5672L23.842 26.1345V24.5672C28.122 24.5672 31.604 20.7432 31.604 16.0457C31.604 11.3459 28.122 7.52422 23.842 7.52422Z" fill="white"/>
</svg>
